<svg width="59" height="58" viewBox="0 0 59 58" fill="none" xmlns="http://www.w3.org/2000/svg">
<path d="M2.77191 35.9978L2.59766 48.2721M2.77191 35.9978L15.0448 36.252M2.77191 35.9978L6.25652 40.6799C11.8985 48.2607 20.2381 53.3832 29.5508 54.988V54.988M55.6868 36.1057L43.4113 36.1457M55.6868 36.1057L55.6468 48.3811M55.6868 36.1057L51.8567 41.2172C46.4287 48.4613 38.4591 53.3814 29.5508 54.988V54.988M29.5508 54.988L29.5039 28.9883M42.5508 15.9883C42.5508 23.168 36.7305 28.9883 29.5508 28.9883C22.3711 28.9883 16.5508 23.168 16.5508 15.9883C16.5508 8.80858 22.3711 2.98828 29.5508 2.98828C36.7305 2.98828 42.5508 8.80858 42.5508 15.9883Z" stroke="url(#paint0_linear_4815_27401)" stroke-width="5" stroke-linecap="round" stroke-linejoin="round"/>
<defs>
<linearGradient id="paint0_linear_4815_27401" x1="36.4921" y1="-2.84235" x2="21.2357" y2="60.685" gradientUnits="userSpaceOnUse">
<stop stop-color="#04E1FF"/>
<stop offset="0.640625" stop-color="#1B85E7"/>
<stop offset="1" stop-color="#2026A2"/>
</linearGradient>
</defs>
</svg>
