<svg xmlns="http://www.w3.org/2000/svg" viewBox="0 0 1923.47 780.39"><defs><style>.cls-1{fill:none;}.cls-2{fill:#fff;}.cls-3{fill:#ff9b00;}</style></defs><g id="Layer_2" data-name="Layer 2"><g id="Layer_1-2" data-name="Layer 1"><rect class="cls-1" width="1923.47" height="780.39"/><path class="cls-2" d="M627.22,305.25h60.61c-7.56,12.74-28.42,21.43-53.52,21.43-33.66,0-59.67-19.89-59.67-51.26,0-32.39,27-52.28,59.93-52.28,29.32,0,46.92,13.52,54.06,32.39l48.2-17.6C722.8,202.48,686.08,180,636.35,180c-66.81,0-113,39.78-113,94.36,0,54.83,45.9,94.86,110.68,94.86,26.27,0,49.73-8.41,59.42-18.87V366.2h46.41v-100H627.22Z"/><rect class="cls-2" x="450.63" y="183.1" width="49.98" height="183.1"/><rect class="cls-2" x="770.7" y="183.1" width="49.98" height="183.1"/><polygon class="cls-2" points="913.91 366.2 963.89 366.2 963.89 225.44 1040.91 225.44 1040.91 183.1 836.9 183.1 836.9 225.44 913.91 225.44 913.91 366.2"/><polygon class="cls-2" points="1428.41 323.87 1314.13 323.87 1314.13 183.1 1264.14 183.1 1264.14 366.2 1428.41 366.2 1428.41 323.87"/><path class="cls-2" d="M1103.16,183.1l-90,183.1h53L1078.3,341h105.06l12.12,25.16h54.83l-89.77-183.1Zm28,49,28.57,59.67,3.32,7H1099l3.42-7Z"/><path class="cls-2" d="M884.86,536.36h60.61c-7.55,12.73-28.41,21.42-53.51,21.42-33.66,0-59.68-19.89-59.68-51.26,0-32.39,27-52.28,59.93-52.28,29.33,0,46.93,13.52,54.07,32.39l48.2-17.6c-14-35.45-50.75-57.89-100.48-57.89-66.82,0-113,39.79-113,94.36,0,54.83,45.9,94.86,110.67,94.86,26.27,0,49.73-8.41,59.42-18.87V597.3h46.42v-100H884.86Z"/><path class="cls-2" d="M1100.14,414.19l-90,183.1h53.05l12.11-25.17h105.06l12.12,25.17h54.83l-89.77-183.1Zm28.06,49,28.56,59.67,3.32,7H1096l3.42-7Z"/><path class="cls-2" d="M1506.28,597.29h54.83l-89.77-183.1H1414l-90,183.1h53l12.11-25.17h105.06ZM1442,463.15l28.56,59.67,3.33,7h-64.13l3.42-7Z"/><rect class="cls-2" x="1260.57" y="414.19" width="49.98" height="183.1"/><path class="cls-2" d="M319.85,183.1H213.73V366.2H319.85c66.81,0,107.62-35.7,107.62-91.55S386.66,183.1,319.85,183.1Zm2.59,141H265.29V225.18h56.89c37.24,0,58.15,19.38,58.15,49.47C380.33,304.49,359.42,324.13,322.44,324.13Z"/><circle class="cls-3" cx="1617.65" cy="274.66" r="94.62"/></g></g></svg>